<?xml version="1.0" encoding="utf-8"?>
<!-- Generator: Adobe Illustrator 16.0.0, SVG Export Plug-In . SVG Version: 6.00 Build 0)  -->
<!DOCTYPE svg PUBLIC "-//W3C//DTD SVG 1.1//EN" "http://www.w3.org/Graphics/SVG/1.1/DTD/svg11.dtd">
<svg version="1.1" id="Capa_1" xmlns="http://www.w3.org/2000/svg" xmlns:xlink="http://www.w3.org/1999/xlink" x="0px" y="0px"
	 width="16px" height="16px" viewBox="0 0 16 16" enable-background="new 0 0 16 16" xml:space="preserve">
<g>
	<path d="M2.158,14.894l0.998,0.633c0.393,0.25,0.914,0.134,1.164-0.259l2.554-4.021c0.894,0.286,1.874,0.349,2.856,0.131
		c2.955-0.659,4.944-3.791,4.287-6.745c-0.659-2.956-3.59-4.817-6.542-4.159C4.519,1.132,2.528,4.263,3.187,7.219
		c0.227,1.017,0.722,1.905,1.395,2.604l-2.54,3.995C1.792,14.211,1.765,14.641,2.158,14.894z M9.362,9.729
		C7.316,10.186,5.29,8.897,4.834,6.852C4.377,4.805,5.794,2.576,7.841,2.12C9.886,1.665,11.914,2.953,12.37,5
		C12.826,7.045,11.408,9.273,9.362,9.729z"/>
</g>
</svg>
