<?xml version="1.0" encoding="utf-8"?>
<!-- Generator: Adobe Illustrator 16.0.0, SVG Export Plug-In . SVG Version: 6.00 Build 0)  -->
<!DOCTYPE svg PUBLIC "-//W3C//DTD SVG 1.1//EN" "http://www.w3.org/Graphics/SVG/1.1/DTD/svg11.dtd">
<svg version="1.1" id="Capa_1" xmlns="http://www.w3.org/2000/svg" xmlns:xlink="http://www.w3.org/1999/xlink" x="0px" y="0px"
	 width="250px" height="50px" viewBox="0 0 250 50" enable-background="new 0 0 250 50" xml:space="preserve">
<g>
	<rect x="203.786" y="30.82" width="3.863" height="4.453"/>
	<g>
		<path d="M109.103,17.446v12.449c0,2.664-1.662,5.38-6.618,5.38c-4.959,0-6.621-2.716-6.621-5.38V17.446h3.956v12.077
			c0,1.428,0.686,2.242,2.665,2.242c1.978,0,2.663-0.814,2.663-2.242V17.446H109.103z"/>
	</g>
	<path d="M118.941,20.925l2.005,7.359h-4.037L118.941,20.925z M116.302,17.445l-5.353,17.564h4.113l0.952-3.426h5.88l0.949,3.426
		h4.117l-5.383-17.564H116.302z"/>
	<path d="M138.141,22.798c0-1.318-0.501-1.844-2.109-1.844h-3.141v5.168h3.141c1.688,0,2.109-0.608,2.109-1.925V22.798z
		 M135.213,29.552h-2.322v5.458h-3.954V17.445h7.306c4.272,0,5.854,1.688,5.854,4.985v2.162c0,2.191-0.791,3.666-2.558,4.404
		l4.244,6.014h-4.692L135.213,29.552z"/>
	<path d="M154.678,23.089c0-1.372-0.475-2.136-2.455-2.136h-2.372v10.549h2.372c1.98,0,2.455-0.764,2.455-2.136V23.089z
		 M152.699,35.01h-6.806V17.445h6.806c4.325,0,5.934,2.188,5.934,4.562v8.441C158.633,32.793,157.024,35.01,152.699,35.01"/>
	<rect x="161.797" y="17.445" width="3.955" height="17.564"/>
	<g>
		<path d="M174.641,14.357c1.292-0.816,2.558-1.635,3.588-2.425l1.424,2.214c-1.267,0.897-2.189,1.426-3.693,2.218L174.641,14.357z
			 M173.822,28.284h4.034l-2.003-7.36L173.822,28.284z M183.871,35.01h-4.114l-0.951-3.426h-5.881l-0.948,3.426h-4.115l5.356-17.564
			h5.273L183.871,35.01z"/>
	</g>
	<polygon points="196.479,17.445 196.479,29.552 190.703,17.445 185.849,17.445 185.849,35.01 189.623,35.01 189.623,23.458 
		195.371,35.01 200.25,35.01 200.25,17.445 	"/>
	<g>
		<path d="M9.623,14.806c1.187-0.685,2.216-1.344,3.298-2.161l1.001,1.529c-1.083,0.817-2.189,1.477-3.403,2.083L9.623,14.806z
			 M10.599,19.079l-3.138,9.733h6.277L10.599,19.079z M18.064,35.01H15.77l-1.452-4.219H6.854L5.43,35.01H3.136l5.934-17.564h3.06
			L18.064,35.01z"/>
	</g>
	<polygon points="31.802,17.445 31.802,32.478 24.154,17.445 21.042,17.445 21.042,35.01 23.205,35.01 23.205,20.057 30.854,35.01 
		33.966,35.01 33.966,17.445 	"/>
	<polygon points="53.693,17.445 53.693,35.01 64.059,35.01 64.059,32.979 55.961,32.979 55.961,27.02 63.451,27.02 63.451,24.988 
		55.961,24.988 55.961,19.475 64.031,19.475 64.031,17.445 	"/>
	<polygon points="67.935,17.445 67.935,35.01 77.824,35.01 77.824,32.979 70.202,32.979 70.202,17.445 	"/>
	<polygon points="224.229,17.406 219.937,28.782 215.644,17.406 211.619,17.406 210.87,35.273 214.759,35.273 215.027,25.348 
		218.139,32.967 221.733,32.967 224.846,25.348 225.114,35.273 229.006,35.273 228.253,17.406 	"/>
	<polygon points="241.963,17.406 238.69,23.041 235.417,17.406 231.206,17.406 236.409,26.206 231.017,35.273 235.23,35.273 
		238.69,29.373 242.151,35.273 246.362,35.273 240.943,26.206 246.175,17.406 	"/>
	<path d="M92.12,26.734h-5.842v3.146h2.247v1.674c-0.899,0.133-1.614,0.159-2.405,0.159c-1.978,0-2.539-1.135-2.539-2.507v-6.039
		c0-1.372,0.789-2.4,2.767-2.4c1.265,0,3.757,0.186,5.287,0.422l0.545-3.456c-1.502-0.29-3.882-0.554-5.913-0.554
		c-4.273,0-6.731,2.138-6.731,5.381v7.333c0,3.191,2.204,5.379,6.477,5.379c2.03,0,4.309-0.287,6.107-0.844v-4.998V26.734z"/>
	<path d="M42.684,27.634v1.798h4.045v3.236c-1.348,0.235-2.503,0.313-3.414,0.313c-2.967,0-3.777-0.99-3.777-3.203v-7.395
		c0-2.343,1.185-3.201,4.049-3.201c1.431,0,3.155,0.156,4.821,0.441l0.343-1.924c-1.616-0.365-3.397-0.548-4.883-0.548
		c-4.32,0-6.128,1.612-6.128,5.129v7.627c0,3.203,1.109,5.102,5.535,5.102c1.796,0,3.902-0.26,5.25-0.754v-6.622H42.684z"/>
</g>
</svg>
