<?xml version="1.0" encoding="utf-8"?>
<!-- Generator: Adobe Illustrator 16.0.0, SVG Export Plug-In . SVG Version: 6.00 Build 0)  -->
<!DOCTYPE svg PUBLIC "-//W3C//DTD SVG 1.1//EN" "http://www.w3.org/Graphics/SVG/1.1/DTD/svg11.dtd">
<svg version="1.1" id="Capa_1" xmlns="http://www.w3.org/2000/svg" xmlns:xlink="http://www.w3.org/1999/xlink" x="0px" y="0px"
	 width="16px" height="16px" viewBox="0 0 16 16" enable-background="new 0 0 16 16" xml:space="preserve">
<g>
	<path d="M11.512,7.324H8.675V4.487c0-0.373-0.302-0.405-0.675-0.405S7.325,4.115,7.325,4.487v2.837H4.488
		C4.115,7.324,4.083,7.626,4.083,8c0,0.374,0.032,0.676,0.405,0.676h2.837v2.836c0,0.373,0.302,0.406,0.675,0.406
		s0.675-0.033,0.675-0.406V8.676h2.836c0.373,0,0.406-0.302,0.406-0.676C11.918,7.626,11.885,7.324,11.512,7.324z"/>
</g>
<g>
	<path d="M7.999,0.5C3.857,0.5,0.5,3.858,0.5,8c0,4.143,3.357,7.5,7.499,7.5c4.142,0,7.501-3.357,7.501-7.5
		C15.5,3.858,12.141,0.5,7.999,0.5z M7.999,13.869c-3.241,0-5.87-2.627-5.87-5.87c0-3.242,2.629-5.87,5.87-5.87
		c3.242,0,5.867,2.628,5.867,5.87C13.866,11.242,11.241,13.869,7.999,13.869z"/>
</g>
</svg>
